# xmcd
#
# Track frame offsets: 
#        150
#        15849
#        32394
#        50984
#        77539
#        95540
#        113107
#        135858
#        155819
#        174808
#
# Disc length: 2652 seconds
#
# Revision: 0
# Processed by: cddbd v1.5.2PL0 Copyright (c) Steve Scherf et al.
# Submitted via: ExactAudioCopy v1.3
#
DISCID=690a5a0a
DTITLE=The Snyders - Reaching Higher
DYEAR=2017
DGENRE=Jazzy Blues
TTITLE0=Snyder Slider
TTITLE1=Chasing Fear
TTITLE2=Shadow-Like Being
TTITLE3=Gives Me The Blues
TTITLE4=People Get Ready
TTITLE5=My Home
TTITLE6=Clouded Ego
TTITLE7=Reaching Higher
TTITLE8=You Would Think By Now
TTITLE9=Crazy Mike
EXTD=
EXTT0=
EXTT1=
EXTT2=
EXTT3=
EXTT4=
EXTT5=
EXTT6=
EXTT7=
EXTT8=
EXTT9=
PLAYORDER=
